<svg viewBox="0 0 26 32" fill="none" xmlns="http://www.w3.org/2000/svg">
    <path
        d="M13 0H7.33336V2.04256H13C19.0654 2.04256 24 7.08213 24 13.2766C24 19.471 19.0654 24.5106 13 24.5106C10.9885 24.5106 9.04082 23.9562 7.33336 22.9051V22.1057C9.00113 23.2276 10.9528 23.8298 13 23.8298C18.6979 23.8298 23.3333 19.0957 23.3333 13.2766C23.3333 7.45749 18.6979 2.72341 13 2.72341H4.66669V4.76597H13C17.595 4.76597 21.3333 8.58389 21.3333 13.2766C21.3333 17.9693 17.5949 21.7872 13 21.7872C10.8757 21.7872 8.87883 20.984 7.33336 19.5172V18.545C8.73657 20.1178 10.7574 21.1063 13 21.1063C17.2274 21.1063 20.6666 17.5939 20.6666 13.2766C20.6666 8.95925 17.2274 5.44683 13 5.44683H0V32H2.00001V7.48939H13C16.1246 7.48939 18.6666 10.0855 18.6666 13.2766C18.6666 16.4676 16.1246 19.0638 13 19.0638C9.87544 19.0638 7.33336 16.4676 7.33336 13.2766V12.9362H5.33335V26.5533H7.33336V25.2279C9.08991 26.0986 11.0191 26.5533 13 26.5533C20.1682 26.5533 26 20.5974 26 13.2767C26 5.95595 20.1682 0 13 0Z"
        fill="#5551FF" />
    <path d="M4.66663 10.2129H2.66663V29.2767H4.66663V10.2129Z" fill="#5551FF" />
</svg>